<?xml version="1.0" encoding="iso-8859-1"?>
<!-- Uploaded to: SVG Repo, www.svgrepo.com, Generator: SVG Repo Mixer Tools -->
<svg version="1.1" id="Layer_1" xmlns="http://www.w3.org/2000/svg" xmlns:xlink="http://www.w3.org/1999/xlink" 
	 viewBox="0 0 512 512" xml:space="preserve">
<circle style="fill:#29ABE2;" cx="448.34" cy="103.867" r="40.034"/>
<g>
	<path style="fill:#0C6D95;" d="M440.333,103.87c0-16.408,9.893-30.472,24.021-36.654c-4.91-2.149-10.311-3.38-16.014-3.38
		c-22.111,0-40.034,17.924-40.034,40.034c0,22.111,17.924,40.034,40.034,40.034c5.702,0,11.104-1.231,16.014-3.38
		C450.226,134.341,440.333,120.277,440.333,103.87z"/>
	<circle style="fill:#0C6D95;" cx="88.035" cy="23.801" r="16.014"/>
</g>
<circle style="fill:#29ABE2;" cx="232.155" cy="23.801" r="16.014"/>
<g>
	
		<rect x="16.187" y="15.925" transform="matrix(-0.0164 -0.9999 0.9999 -0.0164 0.4373 48.2972)" style="fill:#FBB03B;" width="15.574" height="16.017"/>
	<rect x="287.992" y="16.164" style="fill:#FBB03B;" width="16.612" height="15.574"/>
</g>
<path d="M254.641,16.014C251.407,6.704,242.552,0,232.155,0c-13.125,0-23.801,10.677-23.801,23.801s10.676,23.801,23.801,23.801
	c10.397,0,19.252-6.704,22.485-16.014h9.761v128.33c0,57.516-46.792,104.309-104.309,104.309
	c-57.516,0-104.309-46.793-104.309-104.309V31.588h9.762c3.233,9.31,12.088,16.014,22.485,16.014c13.124,0,23.8-10.677,23.8-23.801
	C111.831,10.677,101.154,0,88.032,0C77.633,0,68.779,6.704,65.545,16.014H40.21v143.904c0,63.377,49.436,115.416,111.77,119.603
	v16.971h15.574v-16.93c62.641-3.866,112.421-56.047,112.421-119.644V16.014H254.641z M232.155,32.028
	c-4.536,0-8.227-3.691-8.227-8.227s3.691-8.227,8.227-8.227s8.227,3.691,8.227,8.227S236.691,32.028,232.155,32.028z M88.032,15.574
	c4.536,0,8.226,3.691,8.226,8.227s-3.69,8.227-8.226,8.227c-4.536,0-8.227-3.691-8.227-8.227
	C79.804,19.265,83.495,15.574,88.032,15.574z"/>
<rect x="151.981" y="303.762" style="fill:#FBB03B;" width="15.574" height="56.066"/>
<path d="M496.161,103.87c0-26.37-21.452-47.822-47.822-47.822c-26.367,0-47.821,21.452-47.821,47.822
	c0,23.738,17.389,43.483,40.095,47.189v217.039c0,17.781-14.438,32.247-32.186,32.247s-32.186-14.466-32.186-32.247v-48.042
	c0-26.369-21.425-47.821-47.76-47.821c-26.334,0-47.76,21.452-47.76,47.821v120.103c0,31.026-25.383,56.268-56.585,56.268
	s-56.585-25.242-56.585-56.268v-72.027h-15.574v72.027c0,39.613,32.371,71.842,72.159,71.842s72.159-32.228,72.159-71.842V320.055
	c0-17.781,14.438-32.247,32.186-32.247s32.186,14.466,32.186,32.247v48.042c0,26.368,21.425,47.821,47.76,47.821
	c26.334,0,47.76-21.452,47.76-47.821V151.036C478.834,147.279,496.161,127.564,496.161,103.87z M448.34,136.117
	c-17.781,0-32.247-14.466-32.247-32.247c0-17.782,14.466-32.248,32.247-32.248c17.781,0,32.248,14.466,32.248,32.248
	C480.587,121.651,466.121,136.117,448.34,136.117z"/>
<circle style="fill:#FBB03B;" cx="448.34" cy="103.867" r="16.014"/>
<path d="M448.34,127.67c-13.125,0-23.801-10.677-23.801-23.801s10.676-23.801,23.801-23.801c13.125,0,23.801,10.677,23.801,23.801
	S461.464,127.67,448.34,127.67z M448.34,95.643c-4.536,0-8.227,3.691-8.227,8.227c0,4.536,3.691,8.227,8.227,8.227
	c4.536,0,8.227-3.691,8.227-8.227C456.567,99.333,452.876,95.643,448.34,95.643z"/>
</svg>